<svg xmlns="http://www.w3.org/2000/svg" viewBox="0 0 34 34">
  <path d="M 17,1 C 8.163444,1 1,8.163444 1,17 1,25.836556 8.163444,33 17,33 25.836556,33 33,25.836556 33,17 33,8.163444 25.836556,1 17,1 Z m 0,1 C 25.284271,2 32,8.7157288 32,17 32,25.284271 25.284271,32 17,32 8.7157288,32 2,25.284271 2,17 2,8.7157288 8.7157288,2 17,2 Z" fill="currentColor"/>
  <path d="M 17 11 C 13.686292 11 11 13.686292 11 17 C 11 20.313708 13.686292 23 17 23 C 20.313708 23 23 20.313708 23 17 C 23 13.686292 20.313708 11 17 11 z M 17 12 A 5 5 0 0 1 22 17 A 5 5 0 0 1 17 22 A 5 5 0 0 1 12 17 A 5 5 0 0 1 17 12 z " fill="currentColor"/>
</svg>
