<svg xmlns="http://www.w3.org/2000/svg" viewBox="0 0 24 24">
  <g transform="scale(0.8)">
    <g transform="matrix(1.3473182,0,0,1.3473182,-5.1892728,-394.04844)">
      <path
         fill="currentColor"
         d="m 6,293.0625 c -1.108,0 -2,0.892 -2,2 v 11 c 0,1.108 0.892,2 2,2 h 18 c 1.108,0 2,-0.892 2,-2 v -11 c 0,-1.108 -0.892,-2 -2,-2 z m 2,3 h 2 v 2 H 8 Z m 3,0 h 2 v 2 h -2 z m 3,0 h 2 v 2 h -2 z m 3,0 h 2 v 2 h -2 z m 3,0 h 2 v 2 h -2 z m -12,3 h 2 v 2 H 8 Z m 3,0 h 2 v 2 h -2 z m 3,0 h 2 v 2 h -2 z m 3,0 h 2 v 2 h -2 z m 3,0 h 2 v 2 h -2 z m -10,4 h 10 v 2 H 10 Z" />
      <path
         fill="currentColor"
         d="m 12,314.0625 h 6 l -3,-4 z" />
    </g>
  </g>
</svg>
