<svg xmlns="http://www.w3.org/2000/svg" viewBox="0 0 34 34">
  <g transform="matrix(1.000593,0,0,1.0006688,0.99050505,-287.73702)">
    <path d="M 19.001953,1.1308594 V 2 H 19 v 11 h 1 V 2.3359375 A 15,15 45 0 1 32,17 15,15 45 0 1 21.001953,31.455078 v 1.033203 A 16.009488,16.010701 45 0 0 33.009766,17 16.009488,16.010701 45 0 0 19.001953,1.1308594 Z M 12.998047,1.5117188 A 16.009488,16.010701 45 0 0 0.99023438,17 16.009488,16.010701 45 0 0 14.998047,32.869141 V 32 H 15 V 21 H 14 V 31.664062 A 15,15 45 0 1 2,17 15,15 45 0 1 12.998047,2.5449219 Z" transform="matrix(0.70668771,-0.70663419,0.70668771,0.70663419,-8.0273788,304.53335)" fill="currentColor"/>
  </g>
</svg>
